<?xml version="1.0" encoding="UTF-8"?>
<svg xmlns="http://www.w3.org/2000/svg" xmlns:xlink="http://www.w3.org/1999/xlink" width="35px" height="35px" viewBox="0 0 35 35" version="1.1">
<g id="surface1">
<path style=" stroke:none;fill-rule:nonzero;fill:rgb(0%,0%,0%);fill-opacity:1;" d="M 1.445312 31.164062 C 0.632812 31.976562 0.554688 33.21875 1.273438 33.9375 C 1.992188 34.65625 3.234375 34.578125 4.046875 33.765625 L 16.773438 20.363281 L 31.617188 13.417969 C 32.132812 13.636719 32.855469 13.617188 33.558594 13.308594 C 34.65625 12.828125 35.285156 11.839844 34.960938 11.097656 C 34.632812 10.351562 33.480469 10.140625 32.386719 10.617188 C 31.664062 10.933594 31.152344 11.472656 30.976562 12.015625 L 20.777344 16.148438 L 32.015625 4.3125 C 32.578125 4.328125 33.242188 4.046875 33.785156 3.503906 C 34.628906 2.65625 34.851562 1.507812 34.277344 0.933594 C 33.707031 0.359375 32.554688 0.582031 31.707031 1.425781 C 31.152344 1.984375 30.871094 2.671875 30.90625 3.242188 L 14.683594 18.617188 L 0 24.570312 L 0.0234375 28.203125 L 9.007812 23.996094 Z M 1.445312 31.164062 "/>
</g>
</svg>
